#tb 0: 1/25
0,          0,          0,        1,   599040, 0x91d452d5
0,          1,          1,        1,   599040, 0x1b482509
0,          2,          2,        1,   599040, 0xbc51425c
0,          3,          3,        1,   599040, 0x5777eeee
0,          4,          4,        1,   599040, 0xe274644d
0,          5,          5,        1,   599040, 0x867450b5
0,          6,          6,        1,   599040, 0x58708122
0,          7,          7,        1,   599040, 0xeef17206
0,          8,          8,        1,   599040, 0x97f4dc1e
0,          9,          9,        1,   599040, 0x92c961cc
0,         10,         10,        1,   599040, 0x1c4ffcb0
0,         11,         11,        1,   599040, 0xc73e34e6
0,         12,         12,        1,   599040, 0x1991f1f9
0,         13,         13,        1,   599040, 0x36e54ba2
0,         14,         14,        1,   599040, 0x698ce0c6
0,         15,         15,        1,   599040, 0xc6dd131e
0,         16,         16,        1,   599040, 0x0a22f4c5
0,         17,         17,        1,   599040, 0xd6a0c196
0,         18,         18,        1,   599040, 0x699a3e69
0,         19,         19,        1,   599040, 0x4227009b
0,         20,         20,        1,   599040, 0x1bda8be4
0,         21,         21,        1,   599040, 0xd1d5dcb4
0,         22,         22,        1,   599040, 0x00a0249f
0,         23,         23,        1,   599040, 0x7263f7cf
0,         24,         24,        1,   599040, 0x47054be4
0,         25,         25,        1,   599040, 0xda083f52
0,         26,         26,        1,   599040, 0xf2906ab1
0,         27,         27,        1,   599040, 0x20936797
0,         28,         28,        1,   599040, 0x644d7c3e
0,         29,         29,        1,   599040, 0x7c00e8bf
0,         30,         30,        1,   599040, 0x041f8a48
0,         31,         31,        1,   599040, 0xcef6e936
0,         32,         32,        1,   599040, 0x361461e9
0,         33,         33,        1,   599040, 0xf663ba0a
0,         34,         34,        1,   599040, 0x4d3371d3
0,         35,         35,        1,   599040, 0xed6b5c92
0,         36,         36,        1,   599040, 0xdec67f6e
0,         37,         37,        1,   599040, 0xbafa50c0
0,         38,         38,        1,   599040, 0xc9181637
0,         39,         39,        1,   599040, 0x95834e17
